<mxfile host="Electron" agent="Mozilla/5.0 (Windows NT 10.0; Win64; x64) AppleWebKit/537.36 (KHTML, like Gecko) draw.io/26.1.1 Chrome/132.0.6834.210 Electron/34.3.3 Safari/537.36" version="26.1.1">
  <diagram name="第 1 页" id="g_YcGtmA1vPOGSWHPDCq">
    <mxGraphModel dx="1562" dy="917" grid="1" gridSize="10" guides="1" tooltips="1" connect="1" arrows="1" fold="1" page="1" pageScale="1" pageWidth="827" pageHeight="1169" math="0" shadow="0">
      <root>
        <mxCell id="0" />
        <mxCell id="1" parent="0" />
        <mxCell id="5-rC_59RNE-SSEy8dWVE-4" style="edgeStyle=orthogonalEdgeStyle;rounded=0;orthogonalLoop=1;jettySize=auto;html=1;exitX=1;exitY=0.5;exitDx=0;exitDy=0;" edge="1" parent="1" source="5-rC_59RNE-SSEy8dWVE-1" target="5-rC_59RNE-SSEy8dWVE-3">
          <mxGeometry relative="1" as="geometry" />
        </mxCell>
        <mxCell id="5-rC_59RNE-SSEy8dWVE-5" value="创建" style="edgeLabel;html=1;align=center;verticalAlign=middle;resizable=0;points=[];" vertex="1" connectable="0" parent="5-rC_59RNE-SSEy8dWVE-4">
          <mxGeometry x="-0.448" y="3" relative="1" as="geometry">
            <mxPoint x="6" y="3" as="offset" />
          </mxGeometry>
        </mxCell>
        <mxCell id="5-rC_59RNE-SSEy8dWVE-8" style="edgeStyle=orthogonalEdgeStyle;rounded=0;orthogonalLoop=1;jettySize=auto;html=1;exitX=0.5;exitY=1;exitDx=0;exitDy=0;entryX=0;entryY=0.5;entryDx=0;entryDy=0;" edge="1" parent="1" source="5-rC_59RNE-SSEy8dWVE-1" target="5-rC_59RNE-SSEy8dWVE-7">
          <mxGeometry relative="1" as="geometry" />
        </mxCell>
        <mxCell id="5-rC_59RNE-SSEy8dWVE-9" value="查找得到" style="edgeLabel;html=1;align=center;verticalAlign=middle;resizable=0;points=[];" vertex="1" connectable="0" parent="5-rC_59RNE-SSEy8dWVE-8">
          <mxGeometry x="0.1153" y="-2" relative="1" as="geometry">
            <mxPoint x="15" y="-2" as="offset" />
          </mxGeometry>
        </mxCell>
        <mxCell id="5-rC_59RNE-SSEy8dWVE-1" value="类型对象" style="html=1;whiteSpace=wrap;" vertex="1" parent="1">
          <mxGeometry x="130" y="500" width="110" height="50" as="geometry" />
        </mxCell>
        <mxCell id="5-rC_59RNE-SSEy8dWVE-14" style="edgeStyle=orthogonalEdgeStyle;rounded=0;orthogonalLoop=1;jettySize=auto;html=1;exitX=1;exitY=0.5;exitDx=0;exitDy=0;entryX=1;entryY=0.5;entryDx=0;entryDy=0;" edge="1" parent="1" source="5-rC_59RNE-SSEy8dWVE-2" target="5-rC_59RNE-SSEy8dWVE-7">
          <mxGeometry relative="1" as="geometry" />
        </mxCell>
        <mxCell id="5-rC_59RNE-SSEy8dWVE-2" value="参数列表" style="html=1;whiteSpace=wrap;" vertex="1" parent="1">
          <mxGeometry x="290" y="410" width="110" height="50" as="geometry" />
        </mxCell>
        <mxCell id="5-rC_59RNE-SSEy8dWVE-11" style="edgeStyle=orthogonalEdgeStyle;rounded=0;orthogonalLoop=1;jettySize=auto;html=1;exitX=0.5;exitY=0;exitDx=0;exitDy=0;entryX=0.5;entryY=1;entryDx=0;entryDy=0;" edge="1" parent="1" source="5-rC_59RNE-SSEy8dWVE-3" target="5-rC_59RNE-SSEy8dWVE-2">
          <mxGeometry relative="1" as="geometry" />
        </mxCell>
        <mxCell id="5-rC_59RNE-SSEy8dWVE-12" value="插入第一项" style="edgeLabel;html=1;align=center;verticalAlign=middle;resizable=0;points=[];" vertex="1" connectable="0" parent="5-rC_59RNE-SSEy8dWVE-11">
          <mxGeometry relative="1" as="geometry">
            <mxPoint as="offset" />
          </mxGeometry>
        </mxCell>
        <mxCell id="5-rC_59RNE-SSEy8dWVE-20" style="edgeStyle=orthogonalEdgeStyle;rounded=0;orthogonalLoop=1;jettySize=auto;html=1;exitX=1;exitY=0.5;exitDx=0;exitDy=0;entryX=0;entryY=0.5;entryDx=0;entryDy=0;" edge="1" parent="1" source="5-rC_59RNE-SSEy8dWVE-3" target="5-rC_59RNE-SSEy8dWVE-18">
          <mxGeometry relative="1" as="geometry" />
        </mxCell>
        <mxCell id="5-rC_59RNE-SSEy8dWVE-3" value="对象" style="html=1;whiteSpace=wrap;" vertex="1" parent="1">
          <mxGeometry x="290" y="500" width="110" height="50" as="geometry" />
        </mxCell>
        <mxCell id="5-rC_59RNE-SSEy8dWVE-7" value="构造函数" style="html=1;whiteSpace=wrap;" vertex="1" parent="1">
          <mxGeometry x="290" y="590" width="110" height="50" as="geometry" />
        </mxCell>
        <mxCell id="5-rC_59RNE-SSEy8dWVE-18" value="返回值" style="html=1;whiteSpace=wrap;" vertex="1" parent="1">
          <mxGeometry x="450" y="500" width="110" height="50" as="geometry" />
        </mxCell>
        <mxCell id="5-rC_59RNE-SSEy8dWVE-21" value="在构造函数会修改对象，所以直接返回对象即可" style="text;align=center;fontStyle=1;verticalAlign=middle;spacingLeft=3;spacingRight=3;strokeColor=none;rotatable=0;points=[[0,0.5],[1,0.5]];portConstraint=eastwest;html=1;" vertex="1" parent="1">
          <mxGeometry x="305" y="670" width="80" height="26" as="geometry" />
        </mxCell>
      </root>
    </mxGraphModel>
  </diagram>
</mxfile>
